<?xml version="1.0" standalone="no"?>
<!DOCTYPE svg PUBLIC "-//W3C//DTD SVG 20010904//EN"
 "http://www.w3.org/TR/2001/REC-SVG-20010904/DTD/svg10.dtd">
<svg version="1.0" xmlns="http://www.w3.org/2000/svg"
 width="1240.000000pt" height="395.000000pt" viewBox="0 0 1240.000000 395.000000"
 preserveAspectRatio="xMidYMid meet">

<g transform="translate(0.000000,395.000000) scale(0.100000,-0.100000)"
fill="#FFFFFF" stroke="none">
<path d="M6199 3656 c-2 -2 -42 -6 -89 -9 -622 -44 -1093 -409 -1280 -992
-114 -357 -131 -827 -43 -1200 145 -615 524 -996 1117 -1121 166 -35 484 -45
656 -20 691 101 1116 522 1256 1242 25 129 27 159 28 409 1 295 -7 369 -64
588 -162 630 -613 1017 -1271 1092 -64 7 -305 16 -310 11z m300 -346 c213 -75
359 -287 425 -615 44 -222 51 -316 50 -730 0 -435 -11 -559 -69 -785 -103
-401 -321 -588 -660 -567 -220 14 -376 121 -484 333 -108 214 -151 482 -156
969 -4 388 6 535 51 761 52 266 146 453 277 552 70 52 105 70 190 93 99 27
283 21 376 -11z"/>
<path d="M360 3597 c-24 -8 -41 -23 -52 -47 -17 -33 -18 -129 -18 -1573 0
-1649 -2 -1589 48 -1616 14 -7 141 -11 376 -11 l355 0 28 24 28 24 5 763 5
764 159 -245 c88 -135 226 -346 306 -470 360 -554 359 -551 454 -645 122 -121
215 -170 386 -200 95 -17 735 -21 745 -5 4 6 -31 48 -78 93 -124 121 -130 130
-935 1272 -151 215 -279 395 -283 401 -5 6 218 278 582 710 325 384 595 708
599 719 5 13 3 25 -6 35 -12 13 -65 16 -319 18 -189 2 -331 -1 -376 -7 -142
-22 -112 8 -702 -702 l-532 -640 -5 645 -5 646 -28 27 -27 28 -338 2 c-244 2
-347 -1 -372 -10z"/>
<path d="M3562 3599 c-20 -6 -40 -22 -52 -42 -19 -31 -19 -67 -20 -1574 0
-1657 -2 -1595 48 -1622 28 -15 716 -15 743 -1 51 28 49 -52 49 1617 0 1218
-3 1553 -13 1573 -7 14 -28 33 -47 42 -31 16 -69 18 -355 17 -176 0 -335 -5
-353 -10z"/>
<path d="M8330 3601 c-35 -9 -55 -23 -69 -48 -8 -16 -11 -429 -11 -1583 l0
-1562 29 -29 29 -29 236 0 c146 0 244 4 259 11 55 25 52 -53 55 1353 1 715 4
1302 7 1304 2 3 9 -6 14 -19 6 -13 144 -487 307 -1054 435 -1516 431 -1503
453 -1534 42 -59 56 -61 430 -61 320 0 344 1 380 20 22 11 48 34 59 52 11 19
160 572 346 1293 180 693 332 1275 337 1293 6 17 17 32 25 32 12 0 14 -191 16
-1321 l3 -1321 28 -24 28 -24 379 0 379 0 28 24 28 24 0 1576 0 1576 -28 27
-27 28 -518 3 c-284 2 -541 0 -570 -3 -88 -11 -98 -25 -149 -221 -56 -215
-348 -1346 -459 -1779 -47 -181 -99 -382 -115 -445 -17 -63 -35 -132 -40 -152
-5 -21 -14 -38 -19 -38 -11 0 21 -110 -380 1290 -193 674 -357 1244 -366 1267
-30 81 -4 78 -574 79 -278 1 -516 -1 -530 -5z"/>
</g>
</svg>
