<svg width="3700" height="1876" xmlns="http://www.w3.org/2000/svg" xmlns:xlink="http://www.w3.org/1999/xlink" overflow="hidden"><defs><clipPath id="clip0"><rect x="403" y="279" width="3700" height="1876"/></clipPath></defs><g clip-path="url(#clip0)" transform="translate(-403 -279)"><path d="M4.87905e-07-4.58333 3367.27-4.58297 3367.27 4.58369-4.87905e-07 4.58333ZM3362.69-13.7496 3390.19 0.000360892 3362.69 13.7504Z" transform="matrix(1 0 0 -1 445.5 1908.5)"/><path d="M4.58333-1.12018e-06 4.58369 1453.71-4.58298 1453.71-4.58333 1.12018e-06ZM13.7504 1449.12 0.000360892 1476.62-13.7496 1449.12Z" transform="matrix(1 0 0 -1 445.5 1909.12)"/><path d="M536.804 516.927 771.116 532.489 1004.62 548.302 1236.52 564.741 1466.11 582.056 1692.45 600.495 1804.22 610.247 1914.87 620.374 2024.33 630.939 2132.48 642.004 2239.26 653.57 2344.54 665.699 2448.2 678.39 2550.18 691.708 2650.4 705.651 2748.76 720.283 2845.06 735.666 2939.3 751.8 3031.36 768.748 3121.17 786.511 3208.56 805.213 3293.44 824.73 3375.78 845.251 3455.43 866.713 3532.28 889.241 3606.26 912.776 3677.25 937.442 3736.64 959.994 3733.39 968.563 3674.06 946.035 3674.18 946.079 3603.31 921.454 3603.42 921.493 3529.55 897.993 3529.65 898.023 3452.9 875.523 3453 875.55 3373.43 854.113 3373.52 854.135 3291.27 833.635 3291.35 833.654 3206.54 814.154 3206.6 814.169 3119.29 795.482 3119.36 795.496 3029.61 777.746 3029.67 777.758 2937.67 760.82 2937.73 760.83 2843.54 744.705 2843.59 744.713 2747.34 729.338 2747.39 729.346 2649.08 714.721 2649.12 714.727 2548.93 700.79 2548.97 700.795 2447.03 687.482 2447.07 687.487 2343.44 674.799 2343.48 674.803 2238.23 662.678 2238.26 662.682 2131.51 651.119 2131.53 651.122 2023.41 640.059 2023.43 640.062 1914 629.5 1914.02 629.502 1803.39 619.377 1803.41 619.378 1691.66 609.628 1691.69 609.631 1465.38 591.193 1465.41 591.195 1235.84 573.883 1235.86 573.884 1004 557.448 770.509 541.636 536.196 526.073ZM3718.57 936.638 3743.52 967.507 3704.37 974.034C3701.87 974.45 3699.51 972.763 3699.09 970.266 3698.68 967.77 3700.36 965.408 3702.86 964.992L3734.26 959.757 3731.45 967.16 3711.44 942.4C3709.85 940.432 3710.15 937.546 3712.12 935.955 3714.09 934.363 3716.97 934.669 3718.57 936.638Z" fill="#00B050"/><path d="M536.284 544 742.552 558.626 948.722 575.192 1051.65 584.822 1154.51 595.702 1257.26 608.085 1359.83 622.157 1462.23 638.232 1564.44 656.498 1666.41 677.268 1768.14 700.73 1869.63 727.197 1970.81 756.857 2071.69 789.961 2172.2 826.821 2272.38 867.497 2372.19 911.923 2471.66 959.785 2570.82 1010.83 2669.71 1064.88 2768.35 1121.61 2866.72 1180.83 2964.9 1242.24 3062.89 1305.65 3160.68 1370.74 3258.34 1437.32 3355.93 1505.16 3550.71 1643.49 3738.9 1779.1 3734.21 1785.61 3546.03 1650 3546.05 1650.02 3351.3 1511.71 3351.34 1511.73 3253.77 1443.92 3253.8 1443.94 3156.18 1377.38 3156.22 1377.4 3058.47 1312.34 3058.51 1312.37 2960.57 1248.99 2960.62 1249.03 2862.5 1187.65 2862.56 1187.69 2764.24 1128.5 2764.31 1128.54 2665.75 1071.85 2665.83 1071.89 2567.01 1017.89 2567.1 1017.94 2468.04 966.941 2468.14 966.989 2368.76 919.176 2368.87 919.226 2269.18 874.851 2269.3 874.903 2169.24 834.278 2169.37 834.328 2068.99 797.515 2069.12 797.56 1968.37 764.498 1968.5 764.536 1867.43 734.911 1867.55 734.943 1766.18 708.506 1766.29 708.533 1664.66 685.095 1664.76 685.117 1562.89 664.367 1562.98 664.385 1460.86 646.135 1460.94 646.149 1358.63 630.087 1358.7 630.098 1256.2 616.036 1256.27 616.044 1153.58 603.669 1153.64 603.676 1050.83 592.801 1050.88 592.805 948.001 583.18 948.054 583.185 741.929 566.622 741.966 566.625 535.716 552ZM3727.29 1751.64 3743.01 1787.01 3704.48 1783.29C3702.28 1783.07 3700.66 1781.11 3700.88 1778.91 3701.09 1776.7 3703.05 1775.09 3705.25 1775.3L3736.94 1778.37 3732.89 1783.99 3719.96 1754.89C3719.06 1752.87 3719.97 1750.5 3722 1749.6 3724.02 1748.7 3726.39 1749.61 3727.29 1751.64Z" fill="#FF0000"/><text font-family="Arial,Arial_MSFontService,sans-serif" font-weight="700" font-size="64" transform="matrix(1 0 0 1 3562.98 782)">Normal <tspan font-size="64" x="28.9209" y="77">Aging</tspan><tspan font-size="64" x="283.939" y="1147">Time</tspan><tspan font-size="64" x="283.939" y="1224">(Years)</tspan><tspan font-size="64" x="-3121.19" y="-421">Cognitive Functions</tspan></text><path d="M490.5 1608.5 1110 1608.5 1242.5 1741 1110 1873.5 490.5 1873.5Z" stroke="#FFFFFF" stroke-width="4.58333" stroke-miterlimit="8" fill="#FFC000" fill-rule="evenodd"/><text font-family="Malgun Gothic,Malgun Gothic_MSFontService,sans-serif" font-weight="400" font-size="48" transform="matrix(1 0 0 1 691.179 1758)">Preclinical AD</text><path d="M1109.5 1608.5 1825 1608.5 1957.5 1741 1825 1873.5 1109.5 1873.5 1242 1741Z" stroke="#FFFFFF" stroke-width="4.58333" stroke-miterlimit="8" fill="#ED7D31" fill-rule="evenodd"/><text fill="#FFFFFF" font-family="Malgun Gothic,Malgun Gothic_MSFontService,sans-serif" font-weight="400" font-size="48" transform="matrix(1 0 0 1 1371.92 1758)">MCI due to AD</text><path d="M1824.5 1608.5 2354 1608.5 2486.5 1741 2354 1873.5 1824.5 1873.5 1957 1741Z" stroke="#FFFFFF" stroke-width="4.58333" stroke-miterlimit="8" fill="#C5ADF1" fill-rule="evenodd"/><text fill="#FFFFFF" font-family="Malgun Gothic,Malgun Gothic_MSFontService,sans-serif" font-weight="400" font-size="48" transform="matrix(1 0 0 1 1974.73 1720)">Dementia due to <tspan font-size="48" x="92.698" y="75">AD </tspan><tspan font-weight="700" font-size="48" x="175.794" y="75">Mild</tspan></text><path d="M2354.5 1608.5 2884 1608.5 3016.5 1741 2884 1873.5 2354.5 1873.5 2487 1741Z" stroke="#FFFFFF" stroke-width="4.58333" stroke-miterlimit="8" fill="#7861FF" fill-rule="evenodd"/><text fill="#FFFFFF" font-family="Malgun Gothic,Malgun Gothic_MSFontService,sans-serif" font-weight="400" font-size="48" transform="matrix(1 0 0 1 2504.17 1720)">Dementia due to <tspan font-size="48" x="32.7478" y="75">AD </tspan><tspan font-weight="700" font-size="48" x="115.844" y="75">Moderate</tspan></text><path d="M2883.5 1608.5 3413 1608.5 3545.5 1741 3413 1873.5 2883.5 1873.5 3016 1741Z" stroke="#FFFFFF" stroke-width="4.58333" stroke-miterlimit="8" fill="#7609C7" fill-rule="evenodd"/><text fill="#FFFFFF" font-family="Malgun Gothic,Malgun Gothic_MSFontService,sans-serif" font-weight="400" font-size="48" transform="matrix(1 0 0 1 3033.62 1720)">Dementia due to <tspan font-size="48" x="68.4751" y="75">AD</tspan><tspan font-weight="700" font-size="48" x="151.571" y="75">Severe </tspan><tspan fill="#000000" font-family="Arial,Arial_MSFontService,sans-serif" font-size="46" x="-2414.46" y="282">No</tspan><tspan fill="#000000" font-family="Arial,Arial_MSFontService,sans-serif" font-size="46" x="-2343.42" y="282">symptom</tspan><tspan fill="#000000" font-family="Arial,Arial_MSFontService,sans-serif" font-size="46" x="-2145.19" y="282">but</tspan><tspan fill="#000000" font-family="Arial,Arial_MSFontService,sans-serif" font-size="46" x="-2433.37" y="337">p</tspan><tspan fill="#000000" font-family="Arial,Arial_MSFontService,sans-serif" font-size="46" x="-2408.16" y="337">ossible biological </tspan><tspan fill="#000000" font-family="Arial,Arial_MSFontService,sans-serif" font-size="46" x="-2446.82" y="392">Changes in</tspan><tspan fill="#000000" font-family="Arial,Arial_MSFontService,sans-serif" font-size="46" x="-2203.9" y="392">the</tspan><tspan fill="#000000" font-family="Arial,Arial_MSFontService,sans-serif" font-size="46" x="-2128.28" y="392">bra</tspan><tspan fill="#000000" font-family="Arial,Arial_MSFontService,sans-serif" font-size="46" x="-2062.39" y="392">n</tspan><tspan fill="#000000" font-family="Arial,Arial_MSFontService,sans-serif" font-size="46" x="-1806.97" y="281">Very mild symptoms that </tspan><tspan fill="#000000" font-family="Arial,Arial_MSFontService,sans-serif" font-size="46" x="-1774.89" y="336">may not interfere with </tspan><tspan fill="#000000" font-family="Arial,Arial_MSFontService,sans-serif" font-size="46" x="-1743.38" y="391">everyday activities</tspan><tspan fill="#000000" font-family="Arial,Arial_MSFontService,sans-serif" font-size="46" x="-1113.23" y="281">Symptoms interfere </tspan><tspan fill="#000000" font-family="Arial,Arial_MSFontService,sans-serif" font-size="46" x="-1116.96" y="336">with some everyday </tspan><tspan fill="#000000" font-family="Arial,Arial_MSFontService,sans-serif" font-size="46" x="-1002.95" y="391">activities</tspan><tspan fill="#000000" font-family="Arial,Arial_MSFontService,sans-serif" font-size="46" x="-562.72" y="281">Symptoms interfere </tspan><tspan fill="#000000" font-family="Arial,Arial_MSFontService,sans-serif" font-size="46" x="-566.455" y="336">with many everyday </tspan><tspan fill="#000000" font-family="Arial,Arial_MSFontService,sans-serif" font-size="46" x="-452.445" y="391">activities</tspan><tspan fill="#000000" font-family="Arial,Arial_MSFontService,sans-serif" font-size="46" x="-37.5344" y="281">Symptoms interfere </tspan><tspan fill="#000000" font-family="Arial,Arial_MSFontService,sans-serif" font-size="46" x="-34.9448" y="336">with most everyday </tspan><tspan fill="#000000" font-family="Arial,Arial_MSFontService,sans-serif" font-size="46" x="72.7634" y="391">activities</tspan><tspan fill="#000000" font-family="Arial,Arial_MSFontService,sans-serif" font-weight="700" font-size="64" x="523.687" y="-207">Cognitive</tspan><tspan fill="#000000" font-family="Arial,Arial_MSFontService,sans-serif" font-weight="700" font-size="64" x="546.603" y="-130">Declin</tspan><tspan fill="#000000" font-family="Arial,Arial_MSFontService,sans-serif" font-weight="700" font-size="64" x="738.531" y="-130">e</tspan></text></g></svg>